<svg width="32" height="32" viewBox="0 0 32 32" fill="none" xmlns="http://www.w3.org/2000/svg">
<path d="M15.715 28.5414H8.7847V16.3118C8.7847 15.1072 9.27185 13.9295 10.1215 13.0803C12.4615 10.9378 13.3735 9.38395 13.2024 6.13557H15.7377C15.3443 12.6636 19.9883 11.7802 20.1552 16.3118C19.9179 17.7755 21.8919 18.119 22.0376 16.6542C22.1577 14.0023 20.8239 12.2489 18.9566 10.5568C17.7396 9.4103 17.526 7.72635 17.6201 6.13576C18.1914 6.20032 18.7295 5.78752 18.7245 5.19458V1.88258C18.7245 1.36287 18.3032 0.941406 17.7833 0.941406H11.1568C10.6369 0.941406 10.2157 1.36287 10.2157 1.88258V5.19458C10.2117 5.78715 10.7478 6.2007 11.32 6.13576C11.4644 9.00032 10.7934 9.86301 8.79053 11.7491C7.59053 12.9486 6.90234 14.6118 6.90234 16.3119V29.4828C6.90234 30.0025 7.32361 30.4239 7.84352 30.4239H15.715C16.9439 30.4143 16.9481 28.5499 15.715 28.5414ZM12.098 2.82357H16.8421V4.25322H12.098V2.82357Z" fill="#630D2D"/>
<path d="M21.8773 19.1219C21.5321 18.5702 20.6556 18.5685 20.3104 19.1219C19.8462 19.8192 15.8246 26.0268 17.5099 29.2409C17.9232 30.0514 18.9429 31.0408 21.1104 31.0585C28.8604 30.8571 22.9986 20.5958 21.8773 19.1219ZM23.0107 28.3669C22.9096 28.5599 22.6022 29.1457 21.0937 29.1763C16.9913 29.2477 19.8197 23.8194 21.0937 21.4594C22.1723 23.1487 23.8346 27.31 23.0105 28.3667L23.0107 28.3669Z" fill="#630D2D"/>
</svg>
